# AST/ASF file generated using VICON BodyLanguage
# -----------------------------------------------
:version 1.10
:name VICON
:units
  mass 1.0
  length 0.45
  angle deg
:documentation
   .ast/.asf automatically generated from VICON data using
   VICON BodyBuilder and BodyLanguage model FoxedUp or BRILLIANT.MOD
:root
   order TX TY TZ RX RY RZ
   axis XYZ
   position 0 0 0  
   orientation 0 0 0 
:bonedata
  begin
     id 1 
     name lhipjoint
     direction 0.630082 -0.636569 0.44472 
     length 2.82754 
     axis 0 0 0  XYZ
  end
  begin
     id 2 
     name lfemur
     direction 0.34202 -0.939693 0  
     length 7.26371  
     axis 0 0 20  XYZ
    dof rx ry rz
    limits (-160.0 20.0)
           (-70.0 70.0)
           (-60.0 70.0)
  end
  begin
     id 3 
     name ltibia
     direction 0.34202 -0.939693 0   
     length 7.88616   
     axis 0 0 20   XYZ
    dof rx
    limits (-10.0 170.0)
  end
  begin
     id 4 
     name lfoot
     direction 0.0603448 -0.165796 0.984312   
     length 1.77861   
     axis -90 7.62852e-016 20   XYZ
    dof rx rz
    limits (-45.0 90.0)
           (-70.0 20.0)
  end
  begin
     id 5 
     name ltoes
     direction 1.53577e-011 -4.21876e-011 1   
     length 0.902235   
     axis -90 7.62852e-016 20   XYZ
    dof rx
    limits (-90.0 20.0)
  end
  begin
     id 6 
     name rhipjoint
     direction -0.656778 -0.61817 0.431866   
     length 2.9117  
     axis 0 0 0  XYZ 
  end
  begin
     id 7 
     name rfemur
     direction -0.34202 -0.939693 0   
     length 6.81603   
     axis 0 0 -20   XYZ
    dof rx ry rz
    limits (-160.0 20.0)
           (-70.0 70.0)
           (-70.0 60.0)
  end
  begin
     id 8 
     name rtibia
     direction -0.34202 -0.939693 0   
     length 8.05997   
     axis 0 0 -20   XYZ
    dof rx
    limits (-10.0 170.0)
 end
 begin
     id 9 
     name rfoot
     direction -0.0862404 -0.236944 0.967688   
     length 1.84899  
     axis -90 -7.62852e-016 -20   XYZ
    dof rx rz
    limits (-45.0 90.0)
           (-20.0 70.0)
  end
  begin
     id 10 
     name rtoes
     direction -1.53561e-011 -4.21798e-011 1   
     length 0.931579   
     axis -90 -7.62852e-016 -20   XYZ
    dof rx
    limits (-90.0 20.0)
  end
  begin
     id 11 
     name lowerback
     direction -0.0110203 0.991769 -0.127564   
     length 2.05686   
     axis 0 0 0   XYZ
    dof rx ry rz
    limits (-20.0 45.0)
           (-30.0 30.0)
           (-30.0 30.0)
  end
  begin
     id 12 
     name upperback
     direction 0.0109719 0.99993 -0.00432479   
     length 2.06234   
     axis 0 0 0   XYZ
    dof rx ry rz
    limits (-20.0 45.0)
           (-30.0 30.0)
           (-30.0 30.0)
  end
  begin
     id 13 
     name thorax
     direction 0.0173308 0.998351 0.0547306   
     length 2.09856   
     axis 0 0 0   XYZ
    dof rx ry rz
    limits (-20.0 45.0)
           (-30.0 30.0)
           (-30.0 30.0)
  end
  begin
     id 14 
     name lowerneck
     direction -0.0311736 0.989033 0.144366   
     length 1.98151   
     axis 0 0 0   XYZ
    dof rx ry rz
    limits (-20.0 45.0)
           (-30.0 30.0)
           (-30.0 30.0)
  end
  begin
     id 15 
     name upperneck
     direction 0.0421057 0.975772 -0.214698   
     length 2.01457   
     axis 0 0 0   XYZ
    dof rx ry rz
    limits (-20.0 45.0)
           (-30.0 30.0)
           (-30.0 30.0)
  end
  begin
     id 16
     name head
     direction 0.0136911 0.995958 -0.0887718  
     length 2.03562  
     axis 0 0 0   XYZ
    dof rx ry rz
    limits (-20.0 45.0)
           (-30.0 30.0)
           (-30.0 30.0)
  end
  begin
     id 17 
     name lclavicle
     direction 0.915335 0.396201 0.0720134  
     length 4.16217  
     axis 0 0 0   XYZ
    dof ry rz
    limits (-20.0 10.0)
           (0.0 20.0)
  end
  begin
     id 18 
     name lhumerus
     direction 1 -4.48965e-011 6.383e-018   
     length 4.93042   
     axis -180 -30 -90   XYZ
    dof rx ry rz
    limits (-60.0 90.0)
           (-90.0 90.0)
           (-90.0 90.0)
  end
  begin
     id 19
     name lradius
     direction 1 -4.48972e-011 8.8689e-027   
     length 3.68177   
     axis -180 -30 -90   XYZ
    dof rx
    limits (-10.0 170.0)
  end
  begin
     id 20
     name lwrist
     direction 1 -4.48953e-011 1.17971e-026   
     length 1.84089   
     axis -7.69454e-015 90 90   XYZ
    dof ry
    limits (-180.0 0.0)
 end
  begin
     id 21 
     name lhand
     direction 1 -4.49027e-011 2.35802e-026   
     length 0.721479   
     axis -1.50533e-014 90 90   XYZ
    dof rx rz
    limits (-90.0 90.0)
           (-45.0 45.0)
  end
  begin
     id 22 
     name lfingers
     direction 1 -4.48915e-011 4.72027e-026   
     length 0.581675   
     axis -3.01059e-014 90 90   XYZ
    dof rx
    limits (0.0 90.0)
  end
  begin
     id 23
     name lthumb
     direction 0.707107 -6.34948e-011 0.707107   
     length 0.835172   
     axis -90 45 -5.12164e-014   XYZ
    dof rx rz
    limits (-45.0 45.0)
           (-45.0 45.0)
  end
  begin
     id 24 
     name rclavicle
     direction -0.882781 0.469197 0.0234974   
     length 3.95647  
     axis 0 0 0   XYZ 
    dof ry rz
    limits (-10.0 20.0)
           (-20.0 0.0)
  end
  begin
     id 25 
     name rhumerus
     direction -1 -4.48965e-011 -1.54906e-018  
     length 5.07905   
     axis -180 30 90   XYZ
    dof rx ry rz
    limits (-90.0 60.0)
           (-90.0 90.0)
           (-90.0 90.0)
  end
  begin
     id 26 
     name rradius
     direction -1 -4.48972e-011 5.47489e-027   
     length 3.54394   
     axis -180 30 90   XYZ
    dof rx
    limits (-10.0 170.0)
  end
  begin
     id 27 
     name rwrist
     direction -1 -4.48955e-011 1.17969e-026   
     length 1.77197   
     axis -7.69454e-015 -90 -90   XYZ
    dof ry
    limits (-180.0 0.0)
  end
  begin
     id 28
     name rhand
     direction -1 -4.48982e-011 2.35888e-026   
     length 0.681156   
     axis -1.50533e-014 -90 -90   XYZ
    dof rx rz
    limits (-90.0 90.0)
           (-45.0 45.0)
  end
  begin
     id 29
     name rfingers
     direction -1 -4.48955e-011 4.71877e-026   
     length 0.549165   
     axis -3.01059e-014 -90 -90   XYZ
    dof rx
    limits (0.0 90.0)
  end
  begin
     id 30
     name rthumb
     direction -0.707107 -6.3491e-011 0.707107   
     length 0.788495   
     axis -90 -45 5.12164e-014   XYZ
    dof rx rz
    limits (-45.0 45.0)
           (-45.0 45.0)
  end
:hierarchy
  begin
    root lhipjoint rhipjoint lowerback
    lhipjoint lfemur
    lfemur ltibia
    ltibia lfoot
    lfoot ltoes
    rhipjoint rfemur
    rfemur rtibia
    rtibia rfoot
    rfoot rtoes
    lowerback upperback
    upperback thorax
    thorax lowerneck lclavicle rclavicle
    lowerneck upperneck
    upperneck head
    lclavicle lhumerus
    lhumerus lradius
    lradius lwrist
    lwrist lhand lthumb
    lhand lfingers
    rclavicle rhumerus
    rhumerus rradius
    rradius rwrist
    rwrist rhand rthumb
    rhand rfingers
  end

#!OML:ASF H:\Bending\Project 1\Capture day 1\Session 1\Subject.ASF
:FULLY-SPECIFIED
:DEGREES
287
root -9.9409 18.1265 -16.4985 -92.2006 88.5907 -101.586
lowerback 6.75962 -0.0556934 0.613204
upperback -2.56416 0.148871 2.2841
thorax -6.48141 0.110661 2.02428
lowerneck -27.9141 -2.9075 -4.76159
upperneck 31.6477 -2.57051 2.39933
head 16.0749 -1.15612 1.33266
rclavicle 9.44227e-016 1.78906e-014
rhumerus -45.7404 4.69513 -79.114
rradius 45.7261
rwrist 0.761353
rhand -30.1026 -34.0935
rfingers 7.12502
rthumb -3.41654 -64.0459
lclavicle 9.44227e-016 1.78906e-014
lhumerus -43.8938 -16.4492 94.5705
lradius 61.2666
lwrist 40.7152
lhand -43.0928 13.2402
lfingers 7.12502
lthumb -15.9478 42.6037
rfemur 0.598244 1.85287 16.3244
rtibia -3.18055e-015
rfoot -9.11991 -19.0401
rtoes -0.812607
lfemur -10.9444 -15.4411 -11.3038
ltibia 21.6126
lfoot -23.2149 11.0272
ltoes 10.9718
288
root -9.94922 18.1268 -16.4949 -95.658 88.5624 -105.084
lowerback 6.67603 -0.0252842 0.700076
upperback -2.56411 0.19281 2.23742
thorax -6.43409 0.127382 1.9205
lowerneck -27.833 -2.88832 -4.74278
upperneck 31.5061 -2.55513 2.39328
head 15.9871 -1.14947 1.32833
rclavicle -6.95746e-016 -6.75868e-015
rhumerus -47.5187 4.67842 -79.3269
rradius 45.7213
rwrist -1.16469
rhand -29.4498 -33.9373
rfingers 7.12502
rthumb -2.78616 -63.8989
lclavicle -6.95746e-016 -6.75868e-015
lhumerus -45.6987 -13.8325 94.6769
lradius 61.1754
lwrist 40.9306
lhand -42.9595 13.5842
lfingers 7.12502
lthumb -15.8194 42.9578
rfemur 0.578225 1.76241 16.3534
rtibia -9.54166e-015
rfoot -9.27505 -19.0431
rtoes -0.332076
lfemur -11.0364 -15.6644 -11.2678
ltibia 21.6225
lfoot -23.3211 11.2879
ltoes 10.2964
289
root -9.95826 18.1269 -16.4897 -99.5869 88.5035 -109.048
lowerback 6.57654 0.0125894 0.776835
upperback -2.5518 0.246231 2.20726
thorax -6.36492 0.149638 1.83858
lowerneck -27.7612 -2.87889 -4.72294
upperneck 31.3691 -2.55098 2.37907
head 15.9044 -1.14853 1.31792
rclavicle -1.98785e-016 -7.15625e-015
rhumerus -48.7517 4.61941 -79.5507
rradius 45.1721
rwrist -2.48843
rhand -28.7937 -33.5703
rfingers 7.12502
rthumb -2.15244 -63.5391
lclavicle -1.98785e-016 -7.15625e-015
lhumerus -47.3446 -11.3924 94.6683
lradius 61.1262
lwrist 41.6536
lhand -42.9447 13.9934
lfingers 7.12502
lthumb -15.8051 43.3682
rfemur 0.563539 1.65319 16.414
rtibia 6.36111e-015
rfoot -9.39925 -19.0526
rtoes 0.128262
lfemur -11.1396 -15.9 -11.2005
ltibia 21.651
lfoot -23.44 11.5027
ltoes 9.85706
290
root -9.96833 18.1251 -16.4832 -104.187 88.4109 -113.645
lowerback 6.48935 0.050331 0.845686
upperback -2.51927 0.299185 2.19019
thorax -6.28142 0.172306 1.77495
lowerneck -27.6928 -2.89079 -4.71721
upperneck 31.2426 -2.57581 2.37702
head 15.8298 -1.15932 1.30914
rclavicle 2.08724e-015 2.22639e-014
rhumerus -50.1331 4.63207 -79.8429
rradius 45.2472
rwrist -3.35788
rhand -28.0145 -33.3185
rfingers 7.12502
rthumb -1.39991 -63.2937
lclavicle 2.08724e-015 2.22639e-014
lhumerus -48.8409 -9.23374 94.5959
lradius 61.0665
lwrist 42.6972
lhand -43.0668 14.3356
lfingers 7.12502
lthumb -15.9227 43.701
rfemur 0.593381 1.51515 16.501
rtibia 1.59028e-015
rfoot -9.50576 -19.0531
rtoes 0.543171
lfemur -11.2283 -16.144 -11.1132
ltibia 21.7121
lfoot -23.5644 11.6407
ltoes 9.66189
291
root -9.97994 18.1209 -16.4761 -109.435 88.2875 -118.836
lowerback 6.42824 0.0782358 0.911151
upperback -2.46702 0.33886 2.17887
thorax -6.19171 0.18869 1.72093
lowerneck -27.6213 -2.92616 -4.73085
upperneck 31.1392 -2.63392 2.39722
head 15.7682 -1.18261 1.30656
rclavicle 1.98785e-016 1.07344e-014
rhumerus -51.6939 4.71601 -80.2093
rradius 45.9797
rwrist -3.94146
rhand -27.1825 -33.1583
rfingers 7.12502
rthumb -0.596379 -63.1372
lclavicle 1.98785e-016 1.07344e-014
lhumerus -50.1915 -7.40147 94.4986
lradius 60.9386
lwrist 43.8285
lhand -43.3124 14.5179
lfingers 7.12502
lthumb -16.1592 43.8643
rfemur 0.684023 1.34154 16.5964
rtibia -1.59028e-014
rfoot -9.62263 -19.0265
rtoes 0.971453
lfemur -11.2909 -16.3976 -11.0228
ltibia 21.8033
lfoot -23.6844 11.6972
ltoes 9.68279
292
root -9.99365 18.1154 -16.4698 -115.065 88.1415 -124.365
lowerback 6.38885 0.0884997 0.975454
upperback -2.40414 0.35474 2.16631
thorax -6.10267 0.193375 1.66916
lowerneck -27.5422 -2.97676 -4.75681
upperneck 31.0741 -2.71378 2.4335
head 15.7249 -1.21353 1.30905
rclavicle -1.98785e-016 -5.56597e-015
rhumerus -53.0824 4.78038 -80.5941
rradius 46.7216
rwrist -4.35694
rhand -26.4619 -32.8694
rfingers 7.12502
rthumb 0.0995875 -62.8491
lclavicle -1.98785e-016 -5.56597e-015
lhumerus -51.3912 -5.87715 94.3953
lradius 60.6854
lwrist 44.8205
lhand -43.6387 14.5335
lfingers 7.12502
lthumb -16.4734 43.8541
rfemur 0.822466 1.1337 16.6753
rtibia -1.90833e-014
rfoot -9.77971 -18.9563
rtoes 1.54192
lfemur -11.33 -16.6677 -10.9459
ltibia 21.902
lfoot -23.7926 11.6944
ltoes 9.90063
293
root -10.0099 18.1105 -16.4652 -120.709 87.9851 -129.889
lowerback 6.35625 0.0790083 1.0345
upperback -2.34358 0.343514 2.1492
thorax -6.0194 0.184856 1.61881
lowerneck -27.4558 -3.02923 -4.78266
upperneck 31.0589 -2.79506 2.4696
head 15.7039 -1.24451 1.31205
rclavicle -4.62174e-015 1.94809e-014
rhumerus -54.3043 4.85943 -81.0015
rradius 47.4405
rwrist -4.8106
rhand -25.9507 -32.5348
rfingers 7.12502
rthumb 0.593375 -62.5137
lclavicle -4.62174e-015 1.94809e-014
lhumerus -52.4264 -4.60007 94.2856
lradius 60.2575
lwrist 45.4991
lhand -43.9851 14.4589
lfingers 7.12502
lthumb -16.8069 43.7515
rfemur 0.976116 0.902197 16.7155
rtibia 1.59028e-015
rfoot -9.98893 -18.835
rtoes 2.37274
lfemur -11.3543 -16.9622 -10.8949
ltibia 21.9733
lfoot -23.8859 11.6723
ltoes 10.3093
294
root -10.029 18.1081 -16.4629 -126.065 87.8317 -135.13
lowerback 6.31796 0.0549861 1.07871
upperback -2.29538 0.311458 2.12859
thorax -5.94562 0.166638 1.57561
lowerneck -27.3662 -3.07351 -4.80114
upperneck 31.0948 -2.86106 2.49203
head 15.7054 -1.26972 1.31207
rclavicle 1.78906e-015 2.74323e-014
rhumerus -55.3551 4.94413 -81.4039
rradius 48.0991
rwrist -5.36379
rhand -25.6832 -32.2594
rfingers 7.12502
rthumb 0.851722 -62.2374
lclavicle 1.78906e-015 2.74323e-014
lhumerus -53.2781 -3.50394 94.1608
lradius 59.6212
lwrist 45.7748
lhand -44.2882 14.4024
lfingers 7.12502
lthumb -17.0986 43.67
rfemur 1.1114 0.663091 16.7064
rtibia -4.77083e-015
rfoot -10.2285 -18.6714
rtoes 3.4621
lfemur -11.3681 -17.2861 -10.8759
ltibia 21.9843
lfoot -23.9652 11.6698
ltoes 10.9029
295
root -10.0511 18.1086 -16.4626 -130.984 87.6905 -139.95
lowerback 6.27439 0.0274204 1.09711
upperback -2.26175 0.272668 2.10818
thorax -5.88426 0.146144 1.54795
lowerneck -27.2798 -3.10907 -4.81695
upperneck 31.1704 -2.90869 2.50019
head 15.7252 -1.28866 1.31008
rclavicle 1.49089e-016 9.93923e-015
rhumerus -56.2176 4.98616 -81.7463
rradius 48.6575
rwrist -5.92842
rhand -25.6143 -32.1145
rfingers 7.12502
rthumb 0.918308 -62.0923
lclavicle 1.49089e-016 9.93923e-015
lhumerus -53.9287 -2.55026 94.0181
lradius 58.7676
lwrist 45.6577
lhand -44.4975 14.434
lfingers 7.12502
lthumb -17.3001 43.684
rfemur 1.21104 0.431458 16.6525
rtibia 3.02153e-014
rfoot -10.4431 -18.4947
rtoes 4.62519
lfemur -11.3667 -17.638 -10.8892
ltibia 21.9207
lfoot -24.034 11.7098
ltoes 11.6494
296
root -10.076 18.1108 -16.4634 -135.435 87.5622 -144.305
lowerback 6.23973 0.00850376 1.08469
upperback -2.23687 0.243477 2.09168
thorax -5.8376 0.131646 1.54068
lowerneck -27.2004 -3.14535 -4.84604
upperneck 31.2636 -2.95048 2.50883
head 15.755 -1.3065 1.31206
rclavicle 1.2424e-015 8.34896e-015
rhumerus -56.8692 4.9236 -81.9684
rradius 49.0801
rwrist -6.33365
rhand -25.6413 -32.1004
rfingers 7.12502
rthumb 0.892196 -62.0783
lclavicle 1.2424e-015 8.34896e-015
lhumerus -54.3699 -1.74037 93.8697
lradius 57.7163
lwrist 45.2465
lhand -44.5898 14.5382
lfingers 7.12502
lthumb -17.3889 43.7803
rfemur 1.28021 0.215515 16.5722
rtibia 6.36111e-015
rfoot -10.565 -18.3494
rtoes 5.54594
lfemur -11.3392 -18.0099 -10.9297
ltibia 21.7934
lfoot -24.0952 11.7906
ltoes 12.4788
297
root -10.1035 18.1124 -16.4641 -139.414 87.4369 -148.174
lowerback 6.23334 0.00644215 1.04755
upperback -2.21108 0.23573 2.08106
thorax -5.8067 0.12876 1.55113
lowerneck -27.1263 -3.19614 -4.90634
upperneck 31.3482 -3.0073 2.53888
head 15.7839 -1.33122 1.32518
rclavicle 3.67752e-015 -4.77083e-015
rhumerus -57.2946 4.71269 -82.0319
rradius 49.3456
rwrist -6.42367
rhand -25.6514 -32.145
rfingers 7.12502
rthumb 0.882412 -62.123
lclavicle 3.67752e-015 -4.77083e-015
lhumerus -54.6056 -1.10219 93.7395
lradius 56.5098
lwrist 44.6903
lhand -44.5744 14.6206
lfingers 7.12502
lthumb -17.3741 43.8641
rfemur 1.34008 0.0142902 16.4922
rtibia 4.77083e-015
rfoot -10.5443 -18.2775
rtoes 5.91531
lfemur -11.2774 -18.39 -10.9862
ltibia 21.6349
lfoot -24.1517 11.8888
ltoes 13.3096
